<svg width="251" height="52" viewBox="0 0 251 52" fill="none" xmlns="http://www.w3.org/2000/svg">
<g clip-path="url(#clip0_4_748)">
<path d="M72.0968 4.38975H63.0061V7.00911H70.8641V10.3989H63.0061V16.408H59V3.3112L61.3112 1H72.0968V4.38975ZM85.6558 1L87.967 3.3112V14.0968L85.6558 16.408H76.7192L74.408 14.0968V3.3112L76.7192 1H85.6558ZM83.9609 13.0182V4.38975H78.414V13.0182H83.9609ZM104.916 3.3112V8.70399L102.605 11.0152L104.916 14.559V16.408H101.218L98.013 11.1693H95.0546V16.408H91.0486V1H102.605L104.916 3.3112ZM100.91 7.77951V4.38975H95.0546V7.77951H100.91ZM106.919 4.38975V1H120.016V4.38975H115.455V16.408H111.449V4.38975H106.919ZM121.556 16.408V13.3264H122.789V4.08159H121.556V1H128.028V4.08159H126.795V13.3264H128.028V16.408H121.556ZM140.354 4.38975H134.653V7.00911H142.203L144.514 9.3203V14.0968L142.203 16.408H132.958L130.647 14.0968V11.7856H133.575L134.807 13.0182H140.508V10.3989H132.958L130.647 8.08767V3.3112L132.958 1H142.203L144.514 3.3112V5.62239H141.587L140.354 4.38975ZM165.007 4.38975H159.306V7.00911H166.856L169.167 9.3203V14.0968L166.856 16.408H157.611L155.3 14.0968V11.7856H158.227L159.46 13.0182H165.161V10.3989H157.611L155.3 8.08767V3.3112L157.611 1H166.856L169.167 3.3112V5.62239H166.239L165.007 4.38975ZM172.249 16.408V1H183.496L185.808 3.3112V9.78254L183.496 12.0937H176.255V16.408H172.249ZM176.255 8.70399H181.801V4.38975H176.255V8.70399ZM200.137 1L202.448 3.3112V14.0968L200.137 16.408H191.2L188.889 14.0968V3.3112L191.2 1H200.137ZM198.442 13.0182V4.38975H192.895V13.0182H198.442ZM219.397 3.3112V8.70399L217.086 11.0152L219.397 14.559V16.408H215.699L212.494 11.1693H209.536V16.408H205.53V1H217.086L219.397 3.3112ZM215.391 7.77951V4.38975H209.536V7.77951H215.391ZM221.4 4.38975V1H234.497V4.38975H229.936V16.408H225.93V4.38975H221.4ZM246.207 4.38975H240.506V7.00911H248.056L250.367 9.3203V14.0968L248.056 16.408H238.811L236.5 14.0968V11.7856H239.427L240.66 13.0182H246.361V10.3989H238.811L236.5 8.08767V3.3112L238.811 1H248.056L250.367 3.3112V5.62239H247.439L246.207 4.38975Z" fill="#062331"/>
<path d="M59 29.5486V23.3391H82.9914V29.5486H74.6368V51.5643H67.2982V29.5486H59ZM112.063 27.5729V37.4517L107.83 41.6855L112.063 48.1773V51.5643H105.289L99.4185 41.9677H93.9993V51.5643H86.6607V23.3391H107.83L112.063 27.5729ZM104.725 35.7582V29.5486H93.9993V35.7582H104.725ZM117.708 51.5643V27.5729L121.942 23.3391H138.313L142.547 27.5729V51.5643H135.208V43.6612H125.047V51.5643H117.708ZM125.047 37.4517H135.208V29.5486H125.047V37.4517ZM168.796 23.3391L173.03 27.5729V47.3305L168.796 51.5643H148.192V23.3391H168.796ZM165.691 45.3547V29.5486H155.53V45.3547H165.691ZM177.828 51.5643V45.9192H180.086V28.9841H177.828V23.3391H189.683V28.9841H187.425V45.9192H189.683V51.5643H177.828ZM211.981 23.3391H219.319V51.5643H212.827L201.82 35.7582V51.5643H194.481V23.3391H200.973L211.981 39.0323V23.3391ZM242.746 29.5486H232.303V45.3547H243.028V40.5565H236.537V34.3469H250.367V47.3305L246.133 51.5643H229.198L224.964 47.3305V27.5729L229.198 23.3391H246.133L250.367 27.5729V31.8066H245.004L242.746 29.5486Z" fill="#062331"/>
<path d="M43.5564 33.1189H33.1189V51.5852H43.5564V33.1189ZM45.5636 27.298L25.0901 9.23314L18.667 15.054L6.42306 3.01081L12.4447 2.40865L12.244 0L1.20432 0.802882L2.81009 12.0432L5.41945 11.2403L4.41585 4.81729L18.667 18.667L25.2908 12.8461L43.7571 29.3052L45.5636 27.298ZM10.4375 17.8641H0V51.5852H10.4375V17.8641ZM26.8966 24.6886H16.6598V51.5852H26.8966V24.6886Z" fill="#C4A451"/>
</g>
<defs>
<clipPath id="clip0_4_748">
<rect width="251" height="52" fill="white"/>
</clipPath>
</defs>
</svg>
