<svg width="180" height="38" viewBox="0 0 180 38" fill="none" xmlns="http://www.w3.org/2000/svg">
<g clip-path="url(#clip0_387_11146)">
<path d="M51.7029 3.14803H45.1837V5.02645H50.8189V7.45738H45.1837V11.7667H42.3108V2.37456L43.9682 0.717131H51.7029V3.14803ZM61.4265 0.717131L63.0839 2.37456V10.1093L61.4265 11.7667H55.0178L53.3604 10.1093V2.37456L55.0178 0.717131H61.4265ZM60.211 9.33576V3.14803H56.2332V9.33576H60.211ZM75.2386 2.37456V6.2419L73.5813 7.89935L75.2386 10.4407V11.7667H72.5867L70.2882 8.00986H68.1667V11.7667H65.2939V0.717131H73.5813L75.2386 2.37456ZM72.3658 5.57893V3.14803H68.1667V5.57893H72.3658ZM76.675 3.14803V0.717131H86.0673V3.14803H82.7965V11.7667H79.9236V3.14803H76.675ZM87.1717 11.7667V9.55678H88.0559V2.92704H87.1717V0.717131H91.8129V2.92704H90.9287V9.55678H91.8129V11.7667H87.1717ZM100.652 3.14803H96.5639V5.02645H101.978L103.636 6.68388V10.1093L101.978 11.7667H95.3484L93.6911 10.1093V8.45182H95.7909L96.6744 9.33576H100.763V7.45738H95.3484L93.6911 5.79992V2.37456L95.3484 0.717131H101.978L103.636 2.37456V4.03199H101.537L100.652 3.14803ZM118.332 3.14803H114.243V5.02645H119.658L121.315 6.68388V10.1093L119.658 11.7667H113.028L111.371 10.1093V8.45182H113.47L114.354 9.33576H118.442V7.45738H113.028L111.371 5.79992V2.37456L113.028 0.717131H119.658L121.315 2.37456V4.03199H119.215L118.332 3.14803ZM123.525 11.7667V0.717131H131.591L133.249 2.37456V7.01537L131.591 8.67277H126.398V11.7667H123.525ZM126.398 6.2419H130.375V3.14803H126.398V6.2419ZM143.525 0.717131L145.182 2.37456V10.1093L143.525 11.7667H137.116L135.458 10.1093V2.37456L137.116 0.717131H143.525ZM142.309 9.33576V3.14803H138.331V9.33576H142.309ZM157.337 2.37456V6.2419L155.679 7.89935L157.337 10.4407V11.7667H154.685L152.386 8.00986H150.265V11.7667H147.392V0.717131H155.679L157.337 2.37456ZM154.464 5.57893V3.14803H150.265V5.57893H154.464ZM158.773 3.14803V0.717131H168.165V3.14803H164.894V11.7667H162.022V3.14803H158.773ZM176.563 3.14803H172.474V5.02645H177.889L179.546 6.68388V10.1093L177.889 11.7667H171.259L169.602 10.1093V8.45182H171.701L172.585 9.33576H176.673V7.45738H171.259L169.602 5.79992V2.37456L171.259 0.717131H177.889L179.546 2.37456V4.03199H177.446L176.563 3.14803Z" fill="white"/>
<path d="M42.3108 21.1903V16.7373H59.5158V21.1903H53.5244V36.9785H48.2617V21.1903H42.3108ZM80.3639 19.7735V26.8579L77.3283 29.8941L80.3639 34.5495V36.9785H75.5061L71.2962 30.0964H67.4099V36.9785H62.1471V16.7373H77.3283L80.3639 19.7735ZM75.1016 25.6434V21.1903H67.4099V25.6434H75.1016ZM84.4121 36.9785V19.7735L87.4485 16.7373H99.1886L102.225 19.7735V36.9785H96.9619V31.3109H89.6752V36.9785H84.4121ZM89.6752 26.8579H96.9619V21.1903H89.6752V26.8579ZM121.049 16.7373L124.085 19.7735V33.9423L121.049 36.9785H106.273V16.7373H121.049ZM118.822 32.5254V21.1903H111.535V32.5254H118.822ZM127.526 36.9785V32.9302H129.145V20.7855H127.526V16.7373H136.028V20.7855H134.408V32.9302H136.028V36.9785H127.526ZM152.018 16.7373H157.281V36.9785H152.625L144.732 25.6434V36.9785H139.468V16.7373H144.124L152.018 27.9914V16.7373ZM174.081 21.1903H166.592V32.5254H174.283V29.0844H169.628V24.6313H179.546V33.9423L176.51 36.9785H164.365L161.329 33.9423V19.7735L164.365 16.7373H176.51L179.546 19.7735V22.8096H175.7L174.081 21.1903Z" fill="white"/>
<path d="M1.43938 23.7506H8.92444V36.9934H1.43938V23.7506ZM-4.27987e-05 19.5763L14.6821 6.62137L19.2884 10.7957L28.0689 2.15915L23.7506 1.72732L23.8945 0L31.8114 0.575772L30.6598 8.63656L28.7886 8.06077L29.5083 3.45463L19.2884 13.3867L14.5382 9.21234L1.29545 21.0157L-4.27987e-05 19.5763ZM25.19 12.8109H32.675V36.9934H25.19V12.8109ZM13.3866 17.705H20.7278V36.9934H13.3866V17.705Z" fill="#C4A451"/>
</g>
<defs>
<clipPath id="clip0_387_11146">
<rect width="180" height="37.2908" fill="white"/>
</clipPath>
</defs>
</svg>
